<svg id="Capa_4" data-name="Capa 4" xmlns="http://www.w3.org/2000/svg" viewBox="0 0 73.12 97.98"><defs><style>.cls-1{font-size:12.92px;font-family:LucidaFax-Italic, Lucida Fax;font-style:italic;}.cls-1,.cls-4{fill:#c0272d;}.cls-2{font-size:7.67px;fill:#e5e5e5;font-family:Microsoft-Yi-Baiti, Microsoft Yi Baiti;letter-spacing:0.2em;}.cls-3{fill:#a50f0f;}</style></defs><title>logo</title><text class="cls-1" transform="translate(-0.32 87.17)">Flying Shoe</text><text class="cls-2" transform="translate(6.51 97.91)">FOR RUNNERS</text><path class="cls-3" d="M69.32,66.92c0,.83-15.59,1.51-34.82,1.51S-.32,67.75-.32,66.92s15.59-1.51,34.82-1.51S69.32,66.09,69.32,66.92Z"/><path class="cls-4" d="M67.25,55.14c-2.24-.49-5.24-2.5-8.27-5A2.06,2.06,0,0,0,56.53,47c-.59-1.52-1.11-3-1.55-4.29l.26-.09a2.06,2.06,0,1,0-1.33-3.9l-.11,0c-.07-.31-.13-.58-.17-.8-.14-.77-.27-1.78-.4-2.89h.18a2.07,2.07,0,1,0,0-4.13H52.8c-.18-1.74-.36-3.45-.55-4.77,1.42-5.08.58-10.61-2.36-14.12-3.52-4.22-9.16-4.57-16.31-5C25.86,6.54,16.25,5.94,5.14.39L4.28,0l-.75.6A7,7,0,0,0,1.41,6.81c.38,3.23,4.05,5.25,6,6.1A10.64,10.64,0,0,0,8.67,18.2c1.49,2.74,4.43,3.93,6.69,4.44-1.24,1.37-2,3.53-1.24,4.69,1,1.53,13.41,19.54,15.26,20.32.56.23,2.94-.36,3.41-.24s-.8,2.17-.9,3.54c-.05.62,11.57,15.55,18.57,15.55C51.69,66.5,52,65.14,53,65s.69,2,1.57,2.11,8.66-.15,12.33-.48,6.44-5.49,6.27-7.33C73.12,59.29,73.42,56.52,67.25,55.14ZM11.31,16.77a7.65,7.65,0,0,1-.9-2.93L16,15.23a1.64,1.64,0,0,0,.37,0,1.5,1.5,0,0,0,.36-3L9.47,10.51h0c-1.56-.54-4.86-2.24-5.08-4A4.72,4.72,0,0,1,4.88,3.6C16.07,8.93,25.65,9.53,33.39,10c6.68.42,11.51.71,14.2,3.94,2.83,3.39,3.11,9.52.66,14.25a11.21,11.21,0,0,1-11.49,6.16A19.48,19.48,0,0,1,20.64,23L28,23a1.5,1.5,0,1,0,0-3h0l-9.08,0h-.48C18.36,20,13,19.93,11.31,16.77Z"/></svg>