<svg xmlns="http://www.w3.org/2000/svg" viewBox="0 0 169.24 145.69"><defs><style>.cls-1{fill:#77320b;}.cls-2{fill:#007243;}.cls-3{fill:#fff0e7;}.cls-4{fill:#008e5d;}.cls-5,.cls-7{fill:none;stroke-miterlimit:10;}.cls-5{stroke:#007243;stroke-width:0.87px;}.cls-6{fill:#c8c8c8;}.cls-7{stroke:#77320b;stroke-width:1.17px;}.cls-8{font-size:8.19px;fill:#ed6936;font-family:Montserrat-Light, Montserrat Light;}</style></defs><title>Shoes-logo</title><g id="Capa_4" data-name="Capa 4"><path class="cls-1" d="M57.93,15.58c.09.61-.4,1.21-1.48,1.84a13.59,13.59,0,0,1-4.15,1.42,13.55,13.55,0,0,1-4.4.29C46.66,19,46,18.6,45.82,18c-.23-.95-.34-1.42-.57-2.38,1.7-.41,2.55-.6,4.26-1,.28,1.33.43,2,.71,3.33.12.56.79.71,2,.47s1.75-.63,1.64-1.2c-.19-1-.29-1.56-.49-2.6a2.25,2.25,0,0,0-1.63-1.61c-2.42-.91-3.65-1.34-6.14-2.15-1.08-.35-1.7-.87-1.87-1.56l-.48-2c-.14-.6.35-1.26,1.49-2a13.94,13.94,0,0,1,4.53-1.63,13.78,13.78,0,0,1,4.78-.23c1.32.21,2,.63,2.13,1.23.15,1,.23,1.45.38,2.42-1.78.29-2.67.44-4.45.78-.25-1.34-.38-2-.63-3.35-.1-.57-.82-.73-2.13-.47s-1.94.7-1.82,1.26l.53,2.49c.15.7.72,1.22,1.71,1.57,2.47.88,3.69,1.34,6.09,2.3,1,.42,1.6,1,1.71,1.71Z"/><path class="cls-1" d="M75.66,15.84c-2.74.14-4.12.24-6.86.49l0-.39,1.34-.12c-.25-3-.38-4.45-.63-7.41-1.77.15-2.65.23-4.41.43.33,3,.49,4.44.82,7.39l1.31-.14,0,.39c-2.73.28-4.09.45-6.81.85l-.06-.39,1.31-.18c-.79-5.71-1.18-8.57-2-14.28l-1.42.2-.06-.38c3-.44,4.47-.63,7.46-.93l0,.39-1.43.15c.29,2.62.43,3.92.72,6.54,1.77-.2,2.66-.28,4.43-.43L68.9,1.46l-1.46.13,0-.39c3-.28,4.51-.39,7.51-.53l0,.39-1.46.08c.33,5.75.5,8.63.83,14.38l1.34-.07Z"/><path class="cls-1" d="M90.76,13.7c0,.61-.68,1.1-1.93,1.49a15.25,15.25,0,0,1-4.5.57,14.7,14.7,0,0,1-4.47-.62c-1.26-.4-1.91-.9-1.93-1.5-.15-4.39-.23-6.59-.38-11,0-.61.63-1.16,2-1.63a17,17,0,0,1,9.77.05c1.33.48,2,1,2,1.64C91.05,7.12,91,9.31,90.76,13.7Zm-4.29.82c.09-5.15.14-7.73.23-12.88q0-.36-.66-.63A4.59,4.59,0,0,0,84.41.74,4.39,4.39,0,0,0,82.78,1c-.45.17-.67.37-.67.61,0,5.16.06,7.73.11,12.89,0,.24.21.44.62.61a3.92,3.92,0,0,0,1.5.25,3.81,3.81,0,0,0,1.5-.24Q86.46,14.88,86.47,14.52Z"/><path class="cls-1" d="M106.16,17.26A131.49,131.49,0,0,0,93,15.93l0-.39,1.31.08c.39-5.75.59-8.62,1-14.37l-1.44-.1,0-.39c5.76.35,8.64.64,14.38,1.46l-.65,4.51c-1.79-.26-2.68-.37-4.48-.58L103.67,2c-1.48-.17-2.23-.25-3.72-.39-.25,2.62-.37,3.93-.62,6.55,2.09.2,3.14.31,5.23.58l0,.39c-2.09-.27-3.13-.38-5.22-.58L98.59,16c1.37.13,2,.2,3.42.36.19-1.66.29-2.49.48-4.14,1.73.2,2.59.31,4.32.56Z"/><path class="cls-1" d="M121.25,18c-.14.6-.83,1-2.07,1.13a13.65,13.65,0,0,1-4.38-.28,13.7,13.7,0,0,1-4.17-1.43c-1.08-.62-1.58-1.23-1.48-1.84.15-1,.23-1.45.39-2.41,1.72.27,2.58.42,4.29.74l-.63,3.35c-.1.57.45,1,1.67,1.21s1.87.08,2-.48c.22-1,.33-1.55.54-2.58a2.27,2.27,0,0,0-.89-2.13c-1.88-1.76-2.85-2.63-4.83-4.34a2.47,2.47,0,0,1-1.12-2.16l.33-2c.1-.6.8-1,2.13-1.23a16.07,16.07,0,0,1,9.3,1.86c1.15.7,1.64,1.36,1.5,2-.23.95-.35,1.43-.57,2.38-1.77-.42-2.65-.62-4.43-1,.29-1.33.43-2,.71-3.33.12-.56-.47-1-1.79-1.25s-2-.11-2.16.46c-.18,1-.28,1.5-.47,2.5a2.33,2.33,0,0,0,1,2.11c2,1.76,2.9,2.65,4.75,4.47a2.4,2.4,0,0,1,.93,2.23Z"/><path class="cls-2" d="M136.44,77.4s-31.39,9.37-43.38,6.09-51.44-3.7-51.44-3.7c-.3-1.83-.16-3.38,0-2.41,0,0,39.44.44,51.44,3.7,11,3,38.18-4.57,42.71-5.87A5.94,5.94,0,0,1,136.44,77.4Z"/><path class="cls-2" d="M136.94,85.45s-31.89,9.6-43.88,6.32-51.22-3.63-51.22-3.63c-.3-1.83-.38-3.45-.22-2.47,0,0,39.44.43,51.44,3.69,11,3,39.2-5.22,43.73-6.53A3.69,3.69,0,0,1,136.94,85.45Z"/><path class="cls-3" d="M137,84.54s-31.93,9.64-43.92,6.36c-10.9-3-44.44-3.6-50.5-3.69a1.05,1.05,0,0,1-1-1c-.16-2.54,0-7.49.1-6.65,0,0,39.44.44,51.44,3.7,11,3,38.73-4.84,43.26-6.15C137,78.37,137,84.54,137,84.54Z"/><path class="cls-4" d="M135.77,75.21l-.66.19c-4.53,1.3-31.1,8.68-42.05,5.68-12-3.26-51.6-3.59-51.6-3.59a23.37,23.37,0,0,1-.12-3C40.76,62.27,49,53.64,49,53.64s-1.1,6.52,13.3,6.1S77.15,47.31,77.15,47.31l41,19.18C135.34,65.84,135.77,75.21,135.77,75.21Z"/><path class="cls-4" d="M49,53.64A12.81,12.81,0,0,1,51.79,50S56.37,47.32,49,53.64Z"/><path class="cls-5" d="M43.65,62.85h2.91A15.4,15.4,0,0,1,62,78.26h0L87.17,64.74"/><path class="cls-5" d="M104.93,81.85h0a6.42,6.42,0,0,1,5.29-7l23.38-4"/><line class="cls-5" x1="71.04" y1="57.55" x2="110.22" y2="74.84"/><circle class="cls-6" cx="82.79" cy="56.06" r="1.03"/><path class="cls-6" d="M86.21,58.7a1,1,0,0,1,0-1.46,1,1,0,0,1,1.45,0,1,1,0,0,1,0,1.46A1,1,0,0,1,86.21,58.7Z"/><path class="cls-6" d="M90.35,60.6a1,1,0,1,1,1.45,0A1,1,0,0,1,90.35,60.6Z"/><path class="cls-6" d="M94.49,62.51a1,1,0,0,1,1.45-1.45,1,1,0,0,1,0,1.45A1,1,0,0,1,94.49,62.51Z"/><path class="cls-6" d="M98.63,64.42a1,1,0,0,1,0-1.46,1,1,0,1,1,0,1.46Z"/><path class="cls-6" d="M102.77,66.32a1,1,0,0,1,0-1.45,1,1,0,0,1,1.46,0,1,1,0,0,1,0,1.45A1,1,0,0,1,102.77,66.32Z"/><line class="cls-5" x1="82.79" y1="56.06" x2="86.14" y2="51.41"/><line class="cls-5" x1="87.1" y1="57.77" x2="90.44" y2="53.12"/><line class="cls-5" x1="91.02" y1="59.91" x2="94.36" y2="55.26"/><line class="cls-5" x1="95.27" y1="61.67" x2="98.61" y2="57.02"/><line class="cls-5" x1="99.41" y1="63.87" x2="102.75" y2="59.22"/><line class="cls-5" x1="103.37" y1="65.76" x2="106.71" y2="61.11"/><line class="cls-5" x1="107.59" y1="67.4" x2="110.93" y2="62.75"/><path class="cls-1" d="M59.17,141.3c-.1.7-.75,1.22-2,1.55a10.4,10.4,0,0,1-4.37.05,10.32,10.32,0,0,1-4.12-1.53c-1-.71-1.48-1.42-1.33-2.12l.57-2.78c1.61.33,2.42.49,4,.79-.28,1.55-.42,2.32-.71,3.88-.12.66.42,1.1,1.64,1.31s1.85,0,2-.69c.2-1.21.3-1.81.49-3a2.77,2.77,0,0,0-.84-2.37c-1.74-1.88-2.59-2.84-4.24-4.77a2.88,2.88,0,0,1-.81-2.47c.2-.93.29-1.4.49-2.34.14-.7.79-1.18,1.92-1.47a9.93,9.93,0,0,1,4,0,9.68,9.68,0,0,1,3.74,1.37c1,.65,1.41,1.32,1.31,2l-.4,2.8c-1.56-.21-2.34-.33-3.89-.59.25-1.55.38-2.33.63-3.89.11-.66-.38-1.08-1.47-1.27s-1.72,0-1.84.7l-.53,2.9a2.72,2.72,0,0,0,.77,2.36c1.68,1.89,2.55,2.82,4.32,4.67a2.89,2.89,0,0,1,1,2.44Z"/><path class="cls-1" d="M77.24,133.05c-1.45-.07-2.17-.11-3.62-.2.13-1.93.19-2.89.32-4.82l-1.72-.12c-.5,6.66-.75,10-1.26,16.66l1.31.09,0,.46c-2.72-.19-4.08-.31-6.8-.59l0-.46,1.3.14c.65-6.65,1-10,1.63-16.63l-1.72-.17c-.21,1.91-.31,2.87-.52,4.79-1.44-.15-2.16-.24-3.6-.42.27-2.1.41-3.15.68-5.24a141.33,141.33,0,0,0,14.22,1.23C77.38,129.88,77.33,130.94,77.24,133.05Z"/><path class="cls-1" d="M91.57,143c0,.71-.56,1.34-1.78,1.87a11.24,11.24,0,0,1-4.44.82,11.09,11.09,0,0,1-4.43-.81c-1.23-.53-1.82-1.15-1.8-1.86.17-5.08.25-7.63.41-12.71,0-.71.61-1.29,1.75-1.77a10.31,10.31,0,0,1,4-.71,10.18,10.18,0,0,1,4.06.7c1.13.47,1.72,1,1.74,1.76Zm-4.14,1.21c-.07-6-.11-9-.19-14.94,0-.27-.19-.51-.57-.7a2.81,2.81,0,0,0-1.35-.29,2.93,2.93,0,0,0-1.35.29c-.37.2-.56.43-.57.71-.05,6-.08,9-.14,14.93,0,.28.2.52.61.72a3.8,3.8,0,0,0,3,0Q87.45,144.62,87.43,144.2Z"/><path class="cls-1" d="M108.91,144l-1.81.23c-2.45.29-3.74-.22-3.86-1.44l-.6-6.2c0-.27-.25-.49-.66-.65a3.29,3.29,0,0,0-1.44-.17l-1.73.15c.27,3.43.4,5.15.67,8.59l1.3-.1,0,.45c-2.72.23-4.09.32-6.81.45l0-.46,1.3-.06c-.36-6.67-.55-10-.91-16.68l-1.19.06,0-.45c2.66-.13,4-.22,6.63-.45a10.55,10.55,0,0,1,4.12.35c1.17.38,1.8.91,1.89,1.61l.4,3.38c.13,1.09-.92,2-3.19,2.7,2.37.25,3.63.88,3.75,1.94l.7,5.79c.06.45.48.63,1.28.53l.1,0Zm-6.52-9.86c-.21-2.24-.32-3.36-.54-5.59q0-.42-.63-.66a3,3,0,0,0-1.38-.17l-1.65.14c.24,3,.36,4.56.59,7.6l1.72-.14a3.12,3.12,0,0,0,1.38-.42C102.25,134.7,102.42,134.44,102.39,134.17Z"/><path class="cls-1" d="M123.22,141.64c-5.17,1.07-7.77,1.52-13,2.22l-.06-.45,1.3-.18-2.35-16.54-1.18.17-.06-.45c4.72-.64,7.08-1,11.76-2,.43,2.06.65,3.1,1.07,5.17-1.54.32-2.32.47-3.87.75l-.87-4.74c-1.23.22-1.84.33-3.07.53l1.25,7.53c1.87-.31,2.8-.48,4.66-.84l.09.45c-1.87.36-2.8.53-4.68.83l1.4,8.51c1.35-.22,2-.34,3.37-.58-.35-1.9-.53-2.85-.87-4.75,1.61-.3,2.42-.46,4-.79C122.57,138.54,122.79,139.57,123.22,141.64Z"/><path class="cls-7" d="M146.71,26.88a66.42,66.42,0,0,1-8.48,94.88"/><path class="cls-7" d="M134.55,117.24a60.59,60.59,0,0,0,7.74-86.56"/><path class="cls-7" d="M151.12,23.07a72.24,72.24,0,0,1-9.21,103.21"/><path class="cls-7" d="M22.65,26.88a66.42,66.42,0,0,0,8.48,94.88"/><path class="cls-7" d="M34.81,117.24a60.59,60.59,0,0,1-7.74-86.56"/><path class="cls-7" d="M18.24,23.07a72.26,72.26,0,0,0,9.22,103.21"/><polygon class="cls-1" points="82.73 20.15 84.11 24.41 88.59 24.41 84.97 27.04 86.35 31.3 82.73 28.67 79.11 31.3 80.49 27.04 76.87 24.41 81.35 24.41 82.73 20.15"/><polygon class="cls-1" points="106.46 27.65 107.52 30.92 110.97 30.92 108.18 32.95 109.25 36.22 106.46 34.2 103.67 36.22 104.74 32.95 101.95 30.92 105.4 30.92 106.46 27.65"/><polygon class="cls-1" points="120.45 100.67 121.02 102.39 122.83 102.39 121.36 103.46 121.92 105.19 120.45 104.13 118.98 105.19 119.54 103.46 118.07 102.39 119.89 102.39 120.45 100.67"/><polygon class="cls-1" points="49.23 100.67 49.79 102.39 51.61 102.39 50.13 103.46 50.7 105.19 49.23 104.13 47.75 105.19 48.31 103.46 46.84 102.39 48.66 102.39 49.23 100.67"/><polygon class="cls-1" points="60.02 27.96 61.08 31.23 64.52 31.23 61.74 33.26 62.8 36.53 60.02 34.51 57.23 36.53 58.3 33.26 55.51 31.23 58.95 31.23 60.02 27.96"/><text class="cls-8" transform="translate(62.76 107.72)">SINCE 1995</text></g></svg>