<svg xmlns="http://www.w3.org/2000/svg" viewBox="0 0 95.8 45.14"><defs><style>.cls-1{fill:#007243;}.cls-2{fill:#fff0e7;}.cls-3{fill:#008e5d;}.cls-4{fill:none;stroke:#007243;stroke-miterlimit:10;stroke-width:0.87px;}.cls-5{fill:#c8c8c8;}</style></defs><title>Shoes</title><g id="Capa_3" data-name="Capa 3"><path class="cls-1" d="M95.13,30.1s-31.39,9.36-43.39,6.08S.31,32.48.31,32.48c-.3-1.83-.16-3.38,0-2.4,0,0,39.44.43,51.43,3.69,10.95,3,38.19-4.56,42.72-5.87A6,6,0,0,1,95.13,30.1Z"/><path class="cls-1" d="M95.63,38.14s-31.89,9.6-43.89,6.32S.53,40.83.53,40.83C.23,39,.15,37.38.31,38.36c0,0,39.44.44,51.43,3.7,10.95,3,39.21-5.23,43.74-6.53A3.67,3.67,0,0,1,95.63,38.14Z"/><path class="cls-2" d="M95.67,37.23s-31.93,9.64-43.93,6.36C40.85,40.61,7.31,40,1.25,39.91a1.07,1.07,0,0,1-1-1c-.16-2.54,0-7.49.1-6.64,0,0,39.44.43,51.43,3.69C62.69,39,90.48,31.11,95,29.81,95.64,31.06,95.67,37.23,95.67,37.23Z"/><path class="cls-3" d="M94.46,27.9l-.66.19c-4.53,1.31-31.11,8.68-42.06,5.68-12-3.26-51.6-3.58-51.6-3.58a25.55,25.55,0,0,1-.11-3C-.55,15,7.72,6.33,7.72,6.33s-1.1,6.52,13.3,6.1S35.84,0,35.84,0l41,19.18C94,18.53,94.46,27.9,94.46,27.9Z"/><path class="cls-3" d="M7.72,6.33a12.57,12.57,0,0,1,2.76-3.64S15.06,0,7.72,6.33Z"/><path class="cls-4" d="M2.34,15.55H5.25A15.4,15.4,0,0,1,20.65,31h0L45.86,17.44"/><path class="cls-4" d="M63.62,34.55h0a6.41,6.41,0,0,1,5.29-7l23.37-4"/><line class="cls-4" x1="29.73" y1="10.24" x2="68.91" y2="27.54"/><circle class="cls-5" cx="41.48" cy="8.75" r="1.03"/><path class="cls-5" d="M44.9,11.39a1,1,0,0,1,0-1.45,1,1,0,0,1,1.45,0,1,1,0,0,1-1.45,1.45Z"/><path class="cls-5" d="M49,13.3a1,1,0,0,1,0-1.46,1,1,0,0,1,1.45,0,1,1,0,0,1,0,1.46A1,1,0,0,1,49,13.3Z"/><path class="cls-5" d="M53.18,15.2a1,1,0,1,1,1.45,0A1,1,0,0,1,53.18,15.2Z"/><path class="cls-5" d="M57.32,17.11a1,1,0,1,1,1.45-1.45,1,1,0,0,1,0,1.45A1,1,0,0,1,57.32,17.11Z"/><path class="cls-5" d="M61.46,19a1,1,0,0,1,0-1.46,1,1,0,1,1,0,1.46Z"/><line class="cls-4" x1="41.48" y1="8.75" x2="44.82" y2="4.1"/><line class="cls-4" x1="45.79" y1="10.46" x2="49.13" y2="5.81"/><line class="cls-4" x1="49.71" y1="12.6" x2="53.05" y2="7.96"/><line class="cls-4" x1="53.96" y1="14.37" x2="57.3" y2="9.72"/><line class="cls-4" x1="58.1" y1="16.56" x2="61.44" y2="11.91"/><line class="cls-4" x1="62.06" y1="18.45" x2="65.4" y2="13.8"/><line class="cls-4" x1="66.28" y1="20.09" x2="69.62" y2="15.44"/></g></svg>